HIERARCHY
ROOT SpineBase
{
  OFFSET 0.000000 0.000000 0.000000
  CHANNELS 6 Xposition Yposition Zposition Zrotation Xrotation Yrotation
  JOINT SpineMid
  {
    OFFSET -0.000000 29.698921 0.000000
    CHANNELS 3 Zrotation Xrotation Yrotation
    JOINT SpineShoulder
    {
      OFFSET 0.011248 22.008499 -0.833876
      CHANNELS 3 Zrotation Xrotation Yrotation
      JOINT Neck
      {
        OFFSET -0.011691 7.246529 -0.578897
        CHANNELS 3 Zrotation Xrotation Yrotation
        JOINT Head
        {
          OFFSET 4.152504 12.090135 0.728717
          CHANNELS 3 Zrotation Xrotation Yrotation
          End Site
          {
            OFFSET 0 0 0
          }
        }
      }
      JOINT ShoulderLeft
      {
        OFFSET -13.631045 -3.259500 -9.083697
        CHANNELS 3 Zrotation Xrotation Yrotation
        JOINT ElbowLeft
        {
          OFFSET -5.671887 -23.839940 -0.478026
          CHANNELS 3 Zrotation Xrotation Yrotation
          JOINT WristLeft
          {
            OFFSET -0.432983 -18.418196 -4.423897
            CHANNELS 3 Zrotation Xrotation Yrotation
            JOINT HandLeft
            {
              OFFSET 0.589644 -7.541216 -0.071168
              CHANNELS 3 Zrotation Xrotation Yrotation
              JOINT HandTipLeft
              {
                OFFSET 0.286540 -6.209369 -0.502619
                CHANNELS 3 Zrotation Xrotation Yrotation
                End Site
                {
                  OFFSET 0 0 0
                }
              }
              JOINT ThumbLeft
              {
                OFFSET 2.656700 -1.511036 -1.152222
                CHANNELS 3 Zrotation Xrotation Yrotation
                End Site
                {
                  OFFSET 0 0 0
                }
              }
            }
          }
        }
      }
      JOINT ShoulderRight
      {
        OFFSET 14.621002 -5.402046 3.721479
        CHANNELS 3 Zrotation Xrotation Yrotation
        JOINT ElbowRight
        {
          OFFSET 2.188473 -23.989941 2.889048
          CHANNELS 3 Zrotation Xrotation Yrotation
          JOINT WristRight
          {
            OFFSET -0.684550 -23.686797 -3.460420
            CHANNELS 3 Zrotation Xrotation Yrotation
            JOINT HandRight
            {
              OFFSET -0.150039 -4.972915 -0.177007
              CHANNELS 3 Zrotation Xrotation Yrotation
              JOINT HandTipRight
              {
                OFFSET 0.667960 -5.392680 1.027859
                CHANNELS 3 Zrotation Xrotation Yrotation
                End Site
                {
                  OFFSET 0 0 0
                }
              }
              JOINT ThumbRight
              {
                OFFSET -2.806467 0.451998 -2.713615
                CHANNELS 3 Zrotation Xrotation Yrotation
                End Site
                {
                  OFFSET 0 0 0
                }
              }
            }
          }
        }
      }
    }
  }
  JOINT HipLeft
  {
    OFFSET -6.389047 0.692673 -5.858712
    CHANNELS 3 Zrotation Xrotation Yrotation
    JOINT KneeLeft
    {
      OFFSET -9.360971 -29.745606 7.576097
      CHANNELS 3 Zrotation Xrotation Yrotation
      JOINT AnkleLeft
      {
        OFFSET -2.875599 -30.372387 6.898406
        CHANNELS 3 Zrotation Xrotation Yrotation
        JOINT FootLeft
        {
          OFFSET 3.260759 -5.927823 -3.762895
          CHANNELS 3 Zrotation Xrotation Yrotation
          End Site
          {
            OFFSET 0 0 0
          }
        }
      }
    }
  }
  JOINT HipRight
  {
    OFFSET 5.828741 0.702565 -0.976168
    CHANNELS 3 Zrotation Xrotation Yrotation
    JOINT KneeRight
    {
      OFFSET -8.445303 -31.091878 8.815162
      CHANNELS 3 Zrotation Xrotation Yrotation
      JOINT AnkleRight
      {
        OFFSET -7.116143 -29.079022 7.143571
        CHANNELS 3 Zrotation Xrotation Yrotation
        JOINT FootRight
        {
          OFFSET 0.212575 -7.767449 -4.151343
          CHANNELS 3 Zrotation Xrotation Yrotation
          End Site
          {
            OFFSET 0 0 0
          }
        }
      }
    }
  }
}
MOTION
Frames: 13
Frame Time: 0.033333
29.361233 73.995818 336.510088 0.000000 0.000000 -21.782925 -0.000000 0.000000 21.782925 -0.000000 0.000000 0.000000 -0.000000 0.000000 0.000000 0.000000 0.000000 0.000000 -0.000000 0.000000 0.000000 -0.000000 0.000000 0.000000 -0.000000 0.000000 0.000000 -0.000000 0.000000 0.000000 0.000000 0.000000 0.000000 0.000000 0.000000 0.000000 -0.000000 0.000000 0.000000 -0.000000 0.000000 0.000000 -0.000000 0.000000 0.000000 -0.000000 0.000000 0.000000 0.000000 0.000000 0.000000 0.000000 0.000000 0.000000 -0.000000 0.000000 21.782925 -0.000000 0.000000 0.000000 -0.000000 0.000000 0.000000 0.000000 0.000000 0.000000 -0.000000 0.000000 21.782925 -0.000000 0.000000 0.000000 -0.000000 0.000000 0.000000 0.000000 0.000000 0.000000
29.338799 73.961676 336.463790 -0.087855 0.024211 -21.802047 0.090563 0.010150 21.802058 -0.000000 0.000000 0.000000 -0.000000 0.000000 0.000000 0.000000 0.000000 0.000000 -0.000000 0.000000 0.000000 -0.000000 0.000000 0.000000 -0.000000 0.000000 0.000000 -1.403126 0.224167 0.126723 0.000000 0.000000 0.000000 0.000000 0.000000 0.000000 -0.000000 0.000000 0.000000 -0.000000 0.000000 0.000000 0.130981 1.058110 -0.037786 -4.086956 0.886161 -0.487663 0.000000 0.000000 0.000000 0.000000 0.000000 0.000000 0.090563 0.010150 21.802058 -0.000000 0.000000 0.000000 2.086640 7.354973 2.466769 0.000000 0.000000 0.000000 0.090563 0.010150 21.802058 -0.000000 0.000000 0.000000 1.377368 11.932438 -0.522995 0.000000 0.000000 0.000000
29.323009 73.930019 336.425951 -0.164689 0.038638 -21.839737 0.167242 0.025401 21.839755 -0.000000 0.000000 0.000000 -0.000000 0.000000 0.000000 0.000000 0.000000 0.000000 -0.000000 0.000000 0.000000 -0.200478 -1.066341 0.071513 -0.253818 0.009815 -0.149359 -2.186803 1.317490 0.354956 0.000000 0.000000 0.000000 0.000000 0.000000 0.000000 -0.000000 0.000000 0.000000 -0.000000 0.000000 0.000000 0.147355 1.929349 -0.065905 -7.075763 1.565047 -0.861973 0.000000 0.000000 0.000000 0.000000 0.000000 0.000000 -0.673772 1.024145 21.352251 -0.765049 -1.820101 0.252780 4.646899 12.446696 3.836431 0.000000 0.000000 0.000000 0.167242 0.025401 21.839755 -0.000000 0.000000 0.000000 2.453904 20.795240 -1.080013 0.000000 0.000000 0.000000
29.313861 73.900847 336.396572 -0.230487 0.043281 -21.896008 0.230000 0.045795 21.896003 -0.000000 0.000000 0.000000 -0.000000 0.000000 0.000000 0.000000 0.000000 0.000000 -0.000000 0.000000 0.000000 -0.264952 -1.447050 0.094595 -0.300658 0.029750 -0.199576 -3.133064 1.527935 0.498746 0.000000 0.000000 0.000000 0.000000 0.000000 0.000000 -0.000000 0.000000 0.000000 -0.258290 0.781777 0.016884 0.309028 1.842639 -0.094758 -9.005702 2.018948 -1.122798 0.000000 0.000000 0.000000 0.000000 0.000000 0.000000 -0.961053 1.420420 21.217660 -0.942794 -2.503171 0.364166 6.056817 14.739966 4.090042 0.000000 0.000000 0.000000 0.230000 0.045795 21.896003 -0.064280 -1.019976 0.232708 3.404528 27.844893 -1.849366 0.000000 0.000000 0.000000
29.311356 73.874162 336.375652 -0.285240 0.038145 -21.970852 0.278795 0.071344 21.970773 -0.000000 0.000000 0.000000 0.134938 -0.896775 0.301201 0.000000 0.000000 0.000000 -0.000000 0.000000 0.000000 -0.308348 -1.738294 0.110649 -0.276676 0.094695 -0.233752 -3.981047 1.416121 0.596948 0.000000 0.000000 0.000000 0.000000 0.000000 0.000000 -0.000000 0.000000 0.000000 -0.345180 1.030690 0.023712 0.185022 2.120250 -0.105266 -9.935153 2.249244 -1.272381 0.000000 0.000000 0.000000 0.000000 0.000000 0.000000 -1.204578 1.722002 21.142378 -1.011494 -3.022354 0.462613 7.129068 14.794768 3.473823 0.000000 0.000000 0.000000 0.278795 0.071344 21.970773 -0.090222 -1.169154 0.262329 3.852163 31.721563 -2.152152 0.000000 0.000000 0.000000
29.315493 73.849962 336.363191 -0.328943 0.023238 -22.064240 0.313582 0.102029 22.064028 -0.000000 0.000000 0.000000 0.085132 -1.094099 0.371782 0.000000 0.000000 0.000000 -0.000000 0.000000 0.000000 -0.332087 -1.946621 0.120372 -0.169381 0.228820 -0.251808 -4.734483 0.966888 0.635956 0.000000 0.000000 0.000000 0.000000 0.000000 0.000000 -0.000000 0.000000 0.000000 -0.432063 1.272373 0.031091 -0.056022 2.240745 -0.105900 -9.920630 2.268077 -1.311608 0.000000 0.000000 0.000000 0.000000 0.000000 0.000000 -1.397230 1.918513 21.129586 -0.985249 -3.369177 0.545488 7.869367 12.558704 1.999338 0.000000 0.000000 0.000000 0.313582 0.102029 22.064028 -0.118911 -1.225164 0.268573 3.894893 33.596995 -2.159253 0.000000 0.000000 0.000000
29.326795 73.831026 336.358600 -0.348925 0.014728 -22.234895 0.328553 0.118402 22.234601 -0.000000 0.000000 0.000000 -0.113031 -1.390060 0.483085 0.000000 0.000000 0.000000 -0.804604 -0.494366 0.130074 0.565530 -1.594681 -0.033278 -0.056760 0.926372 -0.190689 -5.777201 -0.049625 0.582098 0.000000 0.000000 0.000000 0.000000 0.000000 0.000000 -0.000000 0.000000 0.000000 -0.527202 1.610949 0.037790 -0.690759 2.792569 -0.099792 -6.879507 0.495004 -1.098294 0.000000 0.000000 0.000000 0.000000 0.000000 0.000000 -1.645634 2.121696 21.179134 -0.769970 -3.925600 0.703478 7.558935 0.926787 -3.550322 0.000000 0.000000 0.000000 0.328553 0.118402 22.234601 -0.006187 -1.351363 0.328169 2.797206 34.702906 -1.475184 0.000000 0.000000 0.000000
29.342340 73.821848 336.359438 -0.371818 -0.013504 -22.370901 0.338696 0.154001 22.370402 -0.000000 0.000000 0.000000 -0.241611 -1.590880 0.557709 0.000000 0.000000 0.000000 -0.858292 -0.656560 0.168219 0.643654 -1.487674 -0.078373 0.213824 2.141921 -0.105247 -6.572810 -2.100830 0.316326 0.000000 0.000000 0.000000 0.000000 0.000000 0.000000 -0.000000 0.000000 0.000000 -0.608803 1.887977 0.044292 -0.857496 1.649641 -0.081741 -5.995268 2.341652 -0.687166 0.000000 0.000000 0.000000 0.000000 0.000000 0.000000 -1.714845 2.166361 21.288767 -0.612077 -4.079960 0.767840 2.381911 -25.087816 -17.229572 0.000000 0.000000 0.000000 0.338696 0.154001 22.370402 -0.097201 -1.040885 0.229409 1.823972 30.742604 -0.674976 0.000000 0.000000 0.000000
29.370084 73.810702 336.373132 -0.387534 -0.061039 -22.491187 0.334710 0.204642 22.490383 -0.000000 0.000000 0.000000 -0.290885 -1.670536 0.587097 0.000000 0.000000 0.000000 -0.890304 -0.856101 0.214519 0.668614 -1.292666 -0.125770 1.079872 1.769594 -0.173769 -6.658849 -2.608948 0.260456 0.000000 0.000000 0.000000 0.000000 0.000000 0.000000 -0.000000 0.000000 0.000000 -0.687400 2.064794 0.052984 -1.442836 0.943574 -0.063940 -4.680853 2.592033 -0.570175 0.000000 0.000000 0.000000 0.000000 0.000000 0.000000 -1.674309 2.027096 21.460178 -0.439217 -3.847472 0.758586 2.514739 -25.177099 -17.416619 0.000000 0.000000 0.000000 0.334710 0.204642 22.490383 -0.000000 0.000000 0.000000 3.875240 26.133852 -1.994363 0.000000 0.000000 0.000000
29.386432 73.772672 336.397368 -0.421101 -0.126211 -22.533287 0.340590 0.277946 22.531997 -0.000000 0.000000 0.000000 -0.388248 -1.708829 0.604407 0.000000 0.000000 0.000000 -0.758106 -0.998978 0.245926 0.336113 -1.209585 -0.107338 1.545136 2.062147 -0.224102 -6.008232 -4.786144 -0.007044 0.000000 0.000000 0.000000 0.000000 0.000000 0.000000 -0.000000 0.000000 0.000000 -0.757487 2.130129 0.062995 -2.360312 -0.063869 -0.045870 -3.357363 3.339143 -0.495051 0.000000 0.000000 0.000000 0.000000 0.000000 0.000000 -1.343615 1.386492 21.742626 -0.230171 -2.446605 0.538122 2.983866 -21.126601 -14.244834 0.000000 0.000000 0.000000 0.340590 0.277946 22.531997 -0.882323 0.111056 -0.242679 9.680385 24.126798 -5.100405 0.000000 0.000000 0.000000
29.412655 73.745795 336.413140 -0.443181 -0.214494 -22.573871 0.326895 0.368181 22.571991 -0.000000 0.000000 0.000000 -0.520911 -1.641556 0.587371 0.000000 0.000000 0.000000 -0.786393 -1.018349 0.250702 0.305860 -1.032158 -0.101642 2.039705 2.491401 -0.213023 -7.496253 -4.029969 0.057060 0.000000 0.000000 0.000000 0.000000 0.000000 0.000000 -0.000000 0.000000 0.000000 -0.858118 2.128941 0.079543 -3.211840 0.055079 -0.042307 -1.733163 2.329385 -0.550384 0.000000 0.000000 0.000000 0.000000 0.000000 0.000000 -1.218289 1.274101 21.869251 -0.261459 -1.945837 0.437815 4.139579 -10.633882 -7.774248 0.000000 0.000000 0.000000 0.326895 0.368181 22.571991 -1.310007 0.455821 -0.427388 7.911806 20.083302 -3.383805 0.000000 0.000000 0.000000
29.446582 73.727718 336.434615 -0.467050 -0.321739 -22.613722 0.307441 0.476584 22.611132 -0.000000 0.000000 0.000000 -0.535740 -1.438647 0.519267 0.000000 0.000000 0.000000 -0.760758 -1.061690 0.260442 0.292053 -0.818295 -0.117175 1.754781 2.291996 -0.190209 -8.447967 -2.210728 0.309206 0.000000 0.000000 0.000000 0.000000 0.000000 0.000000 -0.000000 0.000000 0.000000 -0.970814 1.998931 0.100711 -3.696273 -1.795388 -0.061429 -1.789359 4.582096 -0.553004 0.000000 0.000000 0.000000 0.000000 0.000000 0.000000 -1.225962 1.341694 21.922738 -0.225419 -1.888932 0.433529 2.087562 -15.204239 -9.596034 0.000000 0.000000 0.000000 0.307441 0.476584 22.611132 -1.570103 0.618087 -0.527452 2.669426 12.046518 0.155355 0.000000 0.000000 0.000000
29.486810 73.740066 336.435432 -0.485853 -0.427319 -22.644917 0.283890 0.581429 22.641665 -0.000000 0.000000 0.000000 -0.502540 -1.076321 0.394883 0.000000 0.000000 0.000000 -0.812342 -1.047478 0.257693 0.521843 -0.718283 -0.160929 0.290476 1.762805 -0.115264 -6.200001 -1.337675 0.369441 0.000000 0.000000 0.000000 0.000000 0.000000 0.000000 -0.000000 0.000000 0.000000 -0.963668 1.857163 0.102461 -4.024301 -3.275268 -0.074421 -1.662356 6.745689 -0.424135 0.000000 0.000000 0.000000 0.000000 0.000000 0.000000 -1.327651 1.372110 21.943169 -0.073514 -1.807134 0.458282 2.123109 -13.260495 -8.360122 0.000000 0.000000 0.000000 0.283890 0.581429 22.641665 -1.665146 0.637524 -0.554621 0.827807 8.736428 1.260784 0.000000 0.000000 0.000000
